Coordinates
version=1
nRows=14
nColumns=36
inDegrees=yes

Units are S.I. units (second, meters, Newtons, ...)
If the header above contains a line with 'inDegrees', this indicates whether rotational values are in degrees (yes) or radians (no).

endheader
time	pelvis_tilt	pelvis_list	pelvis_rotation	pelvis_tx	pelvis_ty	pelvis_tz	hip_flexion_r	hip_adduction_r	hip_rotation_r	knee_angle_r	knee_angle_r_beta	ankle_angle_r	subtalar_angle_r	mtp_angle_r	hip_flexion_l	hip_adduction_l	hip_rotation_l	knee_angle_l	knee_angle_l_beta	ankle_angle_l	subtalar_angle_l	mtp_angle_l	lumbar_extension	lumbar_bending	lumbar_rotation	arm_flex_r	arm_add_r	arm_rot_r	elbow_flex_r	pro_sup_r	arm_flex_l	arm_add_l	arm_rot_l	elbow_flex_l	pro_sup_l
     38.66666670	      4.65724847	     -6.80033223	     -4.58355898	     -0.16856259	      0.69847058	     -0.04877362	     65.41057252	      1.48729126	     -3.37590766	     84.01991192	      1.46642410	     20.93238588	     -1.31828060	     -7.49999987	     71.89347903	    -20.03876887	      4.89070648	     93.05284102	      1.62407845	     20.52200198	      8.74174605	     -7.49999987	    -24.28894412	      4.26540982	     11.22637936	     10.81167303	    -15.79474384	     23.65339509	     67.84141330	     89.79095916	     16.95065055	     -8.96044234	     32.40045637	     58.65286180	     61.58375510
     38.68333330	      4.62244054	     -6.69918206	     -4.61441241	     -0.16903493	      0.69824177	     -0.04843477	     65.47905665	      1.40826328	     -3.28625908	     84.04639903	      1.46688639	     20.87932053	     -1.32334885	     -7.49999987	     71.85215335	    -20.00086323	      4.77589796	     93.02515810	      1.62359530	     20.37240198	      8.58668746	     -7.49999987	    -24.38063943	      4.13667429	     11.03546585	     10.86097452	    -15.74144103	     23.75765274	     67.88223752	     89.23588733	     17.12075260	     -9.00393989	     32.46775528	     58.73606146	     61.57541594
     38.70000000	      4.55708364	     -6.63842192	     -4.64500187	     -0.16851325	      0.69840145	     -0.04871924	     65.57093197	      1.31715979	     -3.26229254	     84.07487350	      1.46738336	     20.78469163	     -1.23037531	     -7.49999987	     71.91668595	    -20.00122463	      4.69592688	     92.98655557	      1.62292155	     20.31805215	      8.76639085	     -7.49999987	    -24.34465567	      4.13707657	     10.93299389	     10.87374486	    -15.78653284	     24.12865440	     67.89663644	     89.19774881	     17.05833546	     -9.11734617	     32.76724317	     58.81373208	     61.65046730
     38.71666670	      4.45893471	     -6.56696798	     -4.71193932	     -0.16870120	      0.69817264	     -0.04841880	     65.70745517	      1.26494009	     -3.23377494	     84.06657514	      1.46723853	     20.71791733	     -1.20872665	     -7.49999987	     72.04183271	    -20.01825414	      4.59793298	     92.95478686	      1.62236709	     20.21538375	      8.83138253	     -7.49999987	    -24.25072520	      4.01074344	     10.95595749	     10.88252082	    -15.81411685	     24.19052735	     67.91255638	     89.58870879	     16.99841279	     -9.22496185	     33.00796072	     58.79987816	     61.77480986
     38.73333330	      4.40669709	     -6.61658933	     -4.75514720	     -0.16837057	      0.69831827	     -0.04869127	     65.74279154	      1.27909172	     -3.27558476	     84.03017750	      1.46660327	     20.72164027	     -1.11617661	     -7.49999987	     72.11633185	    -20.09371086	      4.59301554	     92.89881636	      1.62139022	     20.14848607	      8.89064186	     -7.49999987	    -24.22304027	      4.10621910	     11.13654631	     11.07124140	    -15.90132029	     24.28926839	     68.17719654	     89.62988810	     16.99634451	     -9.25488702	     33.21634176	     58.89874328	     61.85851698
     38.75000000	      4.31473124	     -6.49796477	     -4.79708819	     -0.16858326	      0.69823204	     -0.04833230	     65.86930402	      1.21918661	     -3.19532405	     84.08497468	      1.46755966	     20.79077371	     -1.05193567	     -7.49999987	     72.15228645	    -20.10962988	      4.40544865	     92.84285294	      1.62041347	     20.15311166	      8.66542353	     -7.49999987	    -24.37126678	      3.89490064	     11.14001802	     11.29651847	    -15.75924030	     24.08444206	     68.50509327	     88.99740234	     16.87714333	     -9.37183839	     32.99564179	     59.20280878	     61.83729692
     38.76666670	      3.98883789	     -6.51538767	     -4.87057635	     -0.16791568	      0.69813642	     -0.04856563	     66.17009622	      1.22155355	     -3.26140108	     84.08547910	      1.46756846	     20.94141256	     -0.85999220	     -7.49999987	     72.49752711	    -20.19131163	      4.36831466	     92.88031899	      1.62106738	     20.26234957	      8.79591756	     -7.49999987	    -24.37007405	      3.89862286	     11.27072818	     11.49482911	    -15.87401567	     23.91545095	     68.94696962	     89.13737105	     16.79875900	     -9.48980356	     33.14911337	     59.39351676	     61.92952349
     38.78333330	      3.76351898	     -6.47863146	     -4.88909287	     -0.16783961	      0.69781890	     -0.04835581	     66.33421249	      1.21658867	     -3.24717712	     84.06078299	      1.46713744	     20.94212086	     -0.84034711	     -7.49999987	     72.65852229	    -20.20597079	      4.29205374	     92.82361648	      1.62007773	     20.25037528	      8.83064241	     -7.49999987	    -24.40140439	      3.79352265	     11.47212513	     12.02394518	    -15.82774409	     23.62934179	     69.34761698	     88.46697913	     16.83504773	     -9.48892090	     33.28740307	     59.48733920	     61.99230072
     38.80000000	      3.65453128	     -6.42947697	     -4.96316693	     -0.16725859	      0.69806442	     -0.04853086	     66.38910588	      1.25752114	     -3.18351597	     84.05318117	      1.46700476	     21.04827450	     -0.84077060	     -7.49999987	     72.65507540	    -20.23028884	      4.20767420	     92.77497446	      1.61922877	     20.34917466	      9.04169758	     -7.49999987	    -24.53610432	      3.70501489	     11.53622670	     12.52830795	    -15.60796344	     23.25246212	     69.54056756	     88.39085478	     16.68853415	     -9.45016331	     32.94059836	     59.67167816	     61.95871650
     38.81666670	      3.37196797	     -6.35846848	     -5.12018207	     -0.16729606	      0.69758498	     -0.04818922	     66.70382283	      1.32127833	     -3.07081176	     83.98619593	      1.46583565	     20.94415111	     -0.46450841	     -7.49999987	     72.88042698	    -20.32434259	      4.10697660	     92.70484215	      1.61800473	     20.33866218	      9.24786288	     -7.49999987	    -24.31457857	      3.56253210	     11.81369555	     12.80326208	    -15.60956381	     23.20759398	     69.60265123	     87.78583439	     16.71862063	     -9.35973866	     33.21840340	     59.33726772	     62.03331061
     38.83333330	      3.38398275	     -6.24350302	     -5.03061412	     -0.16715694	      0.69799093	     -0.04843567	     66.63557229	      1.17174293	     -2.99555759	     83.93246084	      1.46489779	     20.80287785	     -0.52628087	     -7.49999987	     72.78232375	    -20.17958906	      3.98401792	     92.61625605	      1.61645861	     20.16148804	      9.19760499	     -7.49999987	    -24.46038888	      3.44184423	     11.68445818	     12.97971506	    -15.40755298	     22.84402395	     69.69816934	     87.36668645	     16.57933497	     -9.37018331	     32.79292012	     59.57943073	     61.97467763
     38.85000000	      3.16083084	     -6.36903761	     -5.20331745	     -0.16714323	      0.69733774	     -0.04813345	     66.88289388	      1.36579265	     -3.04809019	     83.89772339	      1.46429151	     20.89563651	     -0.17247179	     -7.49999987	     73.07795264	    -20.40249550	      4.11547190	     92.66790574	      1.61736007	     20.45895859	      9.63874639	     -7.49999987	    -24.19870797	      3.54115585	     11.97886336	     13.20784328	    -15.54603459	     22.90072056	     69.59889087	     87.44404280	     16.70030774	     -9.21966369	     33.13305027	     59.13270011	     62.09992471
     38.86666670	      3.05114348	     -6.35296981	     -5.31132058	     -0.16676279	      0.69749667	     -0.04829301	     67.01347828	      1.41565907	     -2.99388753	     83.90291788	      1.46438217	     21.05659511	     -0.11248800	     -7.49999987	     73.12623222	    -20.47643155	      4.08978342	     92.67526794	      1.61748856	     20.55264941	      9.51821179	     -7.49999987	    -24.26951469	      3.53137580	     12.04522407	     13.37405468	    -15.55505602	     22.87184793	     69.69222347	     87.27715380	     16.68736444	     -9.23085541	     33.10833646	     59.11488984	     62.13451897
     38.88333330	      2.90494636	     -6.37175533	     -5.33157635	     -0.16664042	      0.69721698	     -0.04816565	     67.18939819	      1.39916376	     -3.01074470	     83.93913083	      1.46501420	     21.12485806	      0.21911435	     -7.49999987	     73.26634139	    -20.51915316	      4.12880321	     92.67743600	      1.61752640	     20.50540662	      9.62566928	     -7.49999987	    -24.16163713	      3.57664072	     12.16412057	     13.45709290	    -15.75128227	     23.10601213	     69.72490580	     87.04019377	     16.76996930	     -9.19487746	     33.38462308	     58.97452759	     62.28760659
